<svg id="coffee-logo-light" data-name="Coffee Shop Cambodia" xmlns="http://www.w3.org/2000/svg" viewBox="0 0 1000 1000"><defs><style>.bg{fill:#ffffff;}.cup{fill:none;stroke:#2056a8;stroke-linecap:round;stroke-linejoin:round;stroke-miterlimit:10;stroke-width:34px;}.steam{fill:none;stroke:#2056a8;stroke-linecap:round;stroke-miterlimit:10;stroke-width:34px;}.ring{fill:none;stroke:#d1141a;stroke-width:34px;}</style></defs><title>coffee-shop-cambodia-light</title><circle class="bg" cx="500" cy="500" r="500"/><circle class="ring" cx="500" cy="500" r="440"/><path class="steam" d="M345,300 Q365,270 385,300 Q405,270 425,300"/><path class="steam" d="M575,300 Q595,270 615,300 Q635,270 655,300"/><path class="cup" d="M300,390 H700 A120,120 0 0 1 700,630 H300 A120,120 0 0 1 300,390 Z"/><path class="cup" d="M700,420 H770 A55,55 0 0 1 770,560 H700 Z"/><path class="cup" d="M330,390 V340 Q500,300 670,340 V390 Z"/></svg>
